<svg width="24" height="25" viewBox="0 0 24 25" fill="none" xmlns="http://www.w3.org/2000/svg">
<path d="M11.9999 15.5001C11.8683 15.5008 11.7379 15.4756 11.616 15.4258C11.4942 15.3761 11.3834 15.3027 11.2899 15.2101L7.28994 11.2101C7.10164 11.0218 6.99585 10.7664 6.99585 10.5001C6.99585 10.2338 7.10164 9.97837 7.28994 9.79006C7.47824 9.60176 7.73364 9.49597 7.99994 9.49597C8.26624 9.49597 8.52164 9.60176 8.70994 9.79006L11.9999 13.0901L15.2899 9.80006C15.4812 9.63624 15.7273 9.55063 15.979 9.56035C16.2307 9.57007 16.4694 9.67441 16.6475 9.8525C16.8256 10.0306 16.9299 10.2693 16.9397 10.521C16.9494 10.7727 16.8638 11.0188 16.6999 11.2101L12.6999 15.2101C12.5137 15.3948 12.2623 15.499 11.9999 15.5001Z" fill="#313131"/>
</svg>
